<svg width="196" height="76" viewBox="0 0 196 76" fill="none" xmlns="http://www.w3.org/2000/svg">
<g clip-path="url(#clip0)" filter="url(#filter0_d)">
<path fill-rule="evenodd" clip-rule="evenodd" d="M72.1146 33.9886C72.1146 47.9697 63.6563 59.9777 51.5684 65.1978C50.4122 65.697 49.2207 66.1352 48.0017 66.5051C44.8554 67.4629 41.5166 67.9769 38.0573 67.9769C36.1341 67.9769 34.2497 67.818 32.4135 67.511C29.7641 67.0727 27.2181 66.3258 24.8131 65.3124C19.2861 62.9806 14.5039 59.2361 10.9223 54.532C6.5775 48.8257 4 41.7085 4 33.9885C4 15.2164 19.2471 0 38.0573 0C56.8656 0 72.1145 15.2164 72.1145 33.9885L72.1146 33.9886Z" fill="#F9B004"/>
<path fill-rule="evenodd" clip-rule="evenodd" d="M17.6571 48.2322C17.796 48.1898 17.8997 48.0602 17.8997 47.9068C17.9034 47.6959 17.9609 47.4315 18.0258 47.1393C18.0758 46.9137 18.1277 46.6733 18.1648 46.4164C18.3129 46.2462 18.5409 46.1074 18.9022 46.0354C19.4673 46.0354 19.3838 46.2518 19.9954 46.0631C20.0138 46.1242 20.0343 46.1795 20.0527 46.2314C19.9972 47.0689 20.9866 46.9396 20.4363 48.0379C20.3195 48.3912 20.0823 48.5095 19.8471 48.8626C19.2634 49.7372 19.5876 50.6063 17.7218 48.7442C17.5959 48.4928 17.6052 48.3764 17.657 48.2321L17.6571 48.2322Z" fill="#35393F"/>
<path fill-rule="evenodd" clip-rule="evenodd" d="M67.0182 23.5739C50.7353 21.9392 44.1213 26.8307 37.714 36.4257C36.7931 37.6627 35.9631 39.0126 34.8291 40.2201L30.2581 39.3565L29.1909 39.0514L29.4577 38.3192L29.4633 38.2989L31.2531 31.8769L31.2864 31.753C31.3309 31.5663 31.2178 31.3795 31.0307 31.3333L30.0079 31.0799C30.0541 29.6857 30.2747 29.2531 30.5897 27.8957C30.7399 27.3502 30.8361 26.8067 30.8862 26.2611V26.2537C31.0252 24.6801 30.7603 23.1066 30.236 21.533C29.9377 20.7896 29.2002 19.1272 28.8129 18.0438C28.2999 15.836 28.2738 13.6503 28.5258 11.8751C29.3484 11.4647 29.9803 10.4716 30.0414 9.48048C30.147 7.73118 29.1206 7.1321 27.5808 6.97868C26.723 6.89164 26.7638 5.63803 25.6262 5.75445C24.5384 5.82846 24.3068 6.85291 22.9728 7.05268C20.9681 7.64439 20.3789 9.412 21.6795 10.9412C22.7006 12.4669 22.9469 12.4909 22.3021 15.2479C22.0762 16.2222 21.8093 17.0267 21.5258 17.6924C20.931 18.7075 20.101 19.7504 19.6119 20.2386C17.5321 22.0914 16.7891 24.7856 16.1545 27.45L12.5488 26.5051C12.3634 26.4571 12.1727 26.568 12.1244 26.753C10.7071 32.1543 9.41007 37.4186 7.80728 42.6848C6.93087 42.744 6.05643 42.8309 5.18555 42.9436C8.10756 53.6537 16.1488 62.2595 26.5248 65.9817C28.6816 65.9965 30.842 65.8412 32.8986 65.5267C32.7448 66.1777 32.5799 66.8397 32.404 67.511C34.2401 67.8178 36.1244 67.9769 38.0477 67.9769C39.0038 66.3182 39.8708 64.7059 40.5064 63.1895C40.927 63.0361 41.3012 62.9567 41.5663 63.038C41.8109 63.1128 45.828 66.314 46.6338 66.8859C48.7366 66.3423 50.7619 65.6026 52.6852 64.6856C51.5197 63.0786 50.2876 61.4699 48.9905 59.8224C53.4392 56.9471 51.9346 49.9038 52.4294 43.4134C52.4313 43.3968 52.4313 43.3801 52.4351 43.3635L61.3412 44.2388L62.2046 44.4016C63.2046 46.8021 63.3594 47.1357 65.1626 46.9016C67.6725 46.5762 67.9778 44.4457 67.9958 42.116C68.0442 35.8662 63.5065 27.305 67.0184 23.5738L67.0182 23.5739ZM31.7348 42.5296C31.6625 42.4167 31.5996 42.306 31.5365 42.1912L30.4434 40.6398L32.6093 40.9449L33.8397 41.1613C33.2357 41.6699 32.5464 42.1321 31.7347 42.5296H31.7348ZM52.6646 42.01C53.2649 39.5765 54.7601 37.1284 55.2642 36.3426C56.8205 38.1787 59.6271 40.7161 60.8998 43.1552C58.4208 43.1477 55.114 42.7033 52.6646 42.01Z" fill="#12374A"/>
<path fill-rule="evenodd" clip-rule="evenodd" d="M28.5244 11.287C29.7384 10.9436 29.624 8.78619 29.3473 8.34091C29.1187 7.54574 27.6524 7.27749 26.5156 7.99545L26.5196 10.1161C27.3018 10.2198 28.5231 10.2129 28.5244 11.287Z" fill="#FEFEFE"/>
<path fill-rule="evenodd" clip-rule="evenodd" d="M26.1237 7.99103C24.9567 7.49374 23.1066 7.07932 22.1467 8.23113C21.2036 9.41011 22.2679 11.1756 23.0944 11.5282C24.2682 10.1197 23.4547 10.1146 26.1275 10.1115L26.1253 8.08619L26.1236 7.99091L26.1237 7.99103Z" fill="#FEFEFE"/>
<path fill-rule="evenodd" clip-rule="evenodd" d="M28.2238 54.9533L29.4975 55.8232C30.0501 56.2005 30.134 56.1389 29.6773 56.7704C29.4477 57.0873 29.1493 57.4136 28.9364 57.6968C28.2283 58.639 27.6381 59.817 27.2841 60.9949C27.0997 61.547 26.8434 61.8837 26.6275 62.2846C26.5508 62.4275 26.4737 62.785 26.1763 62.5053C26.1233 62.4554 26.0918 62.3325 25.9866 62.1131C25.7908 61.7051 25.5036 61.5012 24.9679 61.6579C24.5286 61.7869 24.5685 61.7642 24.5699 61.3367C24.5705 61.1797 24.5979 61.0278 24.6235 60.8804C24.7475 60.1684 25.0414 59.5714 25.3252 59.1422C26.0434 58.0558 25.9387 58.5439 26.4197 57.1039L26.5758 56.6364C26.7596 56.2696 27.0809 55.4793 27.4054 54.9998C27.755 54.4822 27.7691 54.6428 28.2238 54.9532V54.9533Z" fill="#FEFEFE"/>
<path fill-rule="evenodd" clip-rule="evenodd" d="M30.0592 55.2438C29.6282 55.0341 29.0907 54.7232 28.7541 54.4989C28.2367 54.1543 28.162 54.2094 28.5214 53.5292C28.5993 53.3819 28.6881 53.2276 28.7718 53.0802C29.1668 52.3814 28.9526 52.4155 29.8751 52.7374C30.3042 52.887 30.8189 53.0943 31.2398 53.3032C32.1819 53.7706 32.1499 53.8015 31.4519 54.5769C31.3428 54.6979 31.2274 54.8193 31.115 54.9346C30.5945 55.4674 30.7089 55.5601 30.0592 55.2439V55.2438Z" fill="#22A0B5"/>
<path fill-rule="evenodd" clip-rule="evenodd" d="M28.2182 61.8694C28.7683 62.217 29.9951 62.8469 30.0075 63.2251C30.0195 63.6034 28.267 63.654 27.8269 63.4726C27.3871 63.2914 27.2891 62.8979 27.2891 62.8979L28.2182 61.8695V61.8694Z" fill="#FEFEFE"/>
<path fill-rule="evenodd" clip-rule="evenodd" d="M28.9959 40.3821L27.9867 44.3264C27.4997 46.1391 27.6523 45.6719 27.125 47.6361C27.125 47.7606 28.7504 49.5693 29.0653 50.1984C29.5374 51.1406 28.8181 51.218 29.7623 51.8071C32.5952 53.5738 32.5951 53.4562 33.5395 52.0427C35.4278 49.6868 34.3657 49.4514 32.7132 46.3886C31.7689 44.6216 30.7608 42.1016 29.3442 40.6882C29.2145 40.5849 29.0991 40.4828 28.9959 40.3822V40.3821Z" fill="#22A0B5"/>
<path fill-rule="evenodd" clip-rule="evenodd" d="M21.7603 29.0316L29.1822 30.8569C29.708 27.9052 30.7542 24.4978 29.294 21.6318C28.7735 20.6106 28.0633 19.7713 27.8011 19.7061C27.7736 23.0181 27.0738 26.6165 26.8725 30.0526C26.8677 30.1317 26.1542 29.8886 26.0937 29.9291C27.0765 24.916 25.2802 23.1041 22.5048 19.1467C19.5694 21.2079 18.5114 21.6932 17.5553 25.4524C17.1882 26.8952 17.1927 26.8545 18.636 27.2263C19.9847 27.5736 21.5902 27.9169 21.7603 29.0316Z" fill="#22A0B5"/>
<path d="M30.5219 31.9226L21.4997 29.6824C20.8951 30.3598 20.4682 33.7889 20.298 37.3735C20.1219 41.0833 20.2388 44.9153 20.73 46.0499C20.7606 46.1236 20.7916 46.1782 20.8208 46.2115C21.8614 47.3977 21.4407 47.9991 21.1059 48.4453L25.8596 49.6958L30.5219 31.9224V31.9226Z" fill="#C4C4C4"/>
<path d="M15.8422 28.0859L12.708 27.2642L8.0625 44.9727L17.1344 47.7718C17.1599 47.62 17.3102 47.1559 17.3459 46.9929C17.4521 46.509 17.5752 45.9497 17.495 45.3381C17.4649 45.1067 17.5041 44.7175 17.3666 44.4269C17.143 43.9554 16.8967 43.4359 16.889 42.7831C16.876 41.6999 16.5074 40.5914 16.3056 39.358C15.5598 34.8036 15.9402 33.9927 16.5145 30.011C16.5463 29.7897 16.5633 29.6321 16.5446 29.6294C15.7519 29.5155 15.6992 28.9932 15.7805 28.4311C15.7943 28.3339 15.8129 28.2378 15.8311 28.144L15.8422 28.086V28.0859Z" fill="#C4C4C4"/>
<path fill-rule="evenodd" clip-rule="evenodd" d="M17.1967 30.1493C16.8218 32.5461 16.3847 34.5949 16.6699 37.0745C16.8763 38.8706 17.5272 44.0951 18.4303 45.446H19.8473C19.5204 43.7183 19.4543 40.4748 19.6029 37.3407C19.7142 34.9941 19.953 32.692 20.3007 31.1034C19.272 30.4914 18.3 30.4241 17.1967 30.1492V30.1493Z" fill="#F8DEAA"/>
<path fill-rule="evenodd" clip-rule="evenodd" d="M17.3904 29.0598C18.0223 29.2216 18.6416 29.4725 19.2269 29.6773C19.5106 29.7763 19.7865 29.8646 20.0518 29.9264C20.845 30.111 21.3308 29.2185 20.1703 28.7594C19.9774 28.683 19.7804 28.5983 19.5815 28.5121C18.9099 28.2202 18.2162 27.9068 17.5806 27.8107C16.6374 27.6678 16.3818 28.8021 17.3904 29.0599V29.0598Z" fill="#22A0B5"/>
<path fill-rule="evenodd" clip-rule="evenodd" d="M55.4765 35.3879C50.1071 40.1916 51.7242 46.3297 51.3056 52.5713C51.0362 56.5858 49.8617 58.6256 47.9358 59.7405C47.2207 60.4616 48.3491 61.399 49.6183 62.9745C50.2964 63.8177 51.0653 64.7533 51.7935 65.6354C50.6373 66.1346 49.446 66.5728 48.2268 66.9427C47.0647 66.0347 45.2133 64.3592 44.1392 63.618C39.9 60.334 41.4971 63.4368 36.146 64.2115C34.1654 64.5406 31.753 64.243 29.9668 61.9057C30.3892 61.6245 31.7158 61.1234 32.2922 60.1972C33.087 58.9194 33.0686 58.9397 33.5465 57.3699C33.7263 56.7782 33.5928 56.1309 33.8652 55.6613C34.2748 54.9567 35.1344 54.4557 35.6273 53.557C37.6709 49.8311 34.7313 44.2307 34.2884 42.829C36.6458 41.2412 38.8872 38.1273 38.848 37.1916C38.845 37.12 39.9024 37.025 39.5778 39.3712C42.0948 36.56 42.0391 33.8165 42.4716 32.355C42.3636 33.1915 44.1312 33.7688 43.8233 35.6686C45.9725 33.5516 45.4083 31.2 46.8886 28.8368C47.2637 31.3333 47.5633 31.2555 47.5154 32.2333C49.2996 30.1585 50.2917 29.1702 50.1529 26.951C51.5589 28.8828 51.5917 31.1172 51.3898 31.5176C52.1269 31.1799 54.5025 27.9542 54.6813 25.1807C55.3245 27.3254 54.8383 29.2008 54.7607 29.2008C55.9556 28.7209 56.7537 28.0314 59.1447 24.9827C58.0664 32.5124 53.8568 32.8306 55.4764 35.3878L55.4765 35.3879Z" fill="#F8DEAA"/>
<path fill-rule="evenodd" clip-rule="evenodd" d="M60.5568 26.8169C60.8949 24.4767 63.0426 24.5027 65.1668 24.366C64.8074 24.7131 63.4841 25.3507 62.6379 26.0987C61.5375 27.0714 62.0883 27.6811 62.6174 27.236C63.2102 26.7378 64.0469 27.4335 62.9166 28.0696C61.9234 28.628 60.3676 28.1278 60.5568 26.8169Z" fill="#F8DEAA"/>
<path fill-rule="evenodd" clip-rule="evenodd" d="M65.0832 43.3109C65.1741 42.9707 65.4287 42.7388 65.8096 42.6821C66.6125 42.523 66.6774 42.881 66.7119 43.4757C66.7387 43.9429 66.8369 44.1103 66.3658 43.7045C66.2339 43.5905 66.221 43.5338 66.1924 43.4713C66.0363 43.1312 65.801 43.2624 65.7946 43.5813C65.79 43.8146 65.8664 44.051 65.9328 44.2874C66.166 44.7227 66.4517 44.5359 66.6105 44.3721C66.7473 44.2309 66.8536 44.2058 66.9193 44.3815C67.3526 45.5413 66.7172 45.9102 65.4689 44.5344C64.9227 44.0004 64.9184 43.9284 65.0832 43.311V43.3109Z" fill="#F8DEAA"/>
<path fill-rule="evenodd" clip-rule="evenodd" d="M63.8664 45.7937C63.3341 45.2531 63.4552 44.4393 63.8347 43.8275C64.0676 43.4522 64.5365 43.0928 64.5276 43.855C64.5238 44.2002 64.5252 44.6006 64.4967 44.9724C64.475 45.251 64.4366 45.5139 64.3667 45.7257C64.2351 46.124 64.1547 46.0866 63.8664 45.7938V45.7937Z" fill="#F8DEAA"/>
<path fill-rule="evenodd" clip-rule="evenodd" d="M59.9969 32.1124C58.2528 30.9101 58.2585 29.5251 59.8634 29.7525C60.0501 28.9058 60.4894 28.6775 60.9833 28.8482C62.3046 29.3039 61.9588 30.5865 61.5104 31.6201C61.2071 32.3186 60.7196 32.7571 59.9968 32.1126L59.9969 32.1124Z" fill="#F8DEAA"/>
<path fill-rule="evenodd" clip-rule="evenodd" d="M64.7218 39.9088C63.8894 38.1259 62.4264 34.7344 62.0897 33.2477C61.8957 32.3922 62.1306 32.7178 62.4715 32.0546C62.5497 31.9029 62.6165 31.7337 62.6713 31.5551C62.9288 30.7133 62.8587 30.9372 63.928 30.8613C64.4079 30.8274 64.8462 30.8519 65.4311 31.143C65.9445 32.3569 65.6299 33.675 65.4641 34.949C65.258 36.5297 65.523 37.1787 65.8983 38.6497C66.1294 39.5546 66.2888 40.4655 65.8638 40.7901C65.1736 41.3175 64.9276 40.3497 64.7218 39.9088Z" fill="#F8DEAA"/>
<path fill-rule="evenodd" clip-rule="evenodd" d="M58.719 32.3105C59.6854 32.9769 59.9829 33.3724 60.3555 34.4839L61.7407 37.9645C62.0389 38.7134 63.6316 41.9321 63.451 42.2583C63.0262 43.024 62.3388 42.3374 62.0413 41.9122C61.3393 40.9084 60.3793 39.0417 59.6647 38.093C55.5639 37.5117 57.1323 33.0691 58.7188 32.3105H58.719Z" fill="#F8DEAA"/>
<path fill-rule="evenodd" clip-rule="evenodd" d="M61.4951 33.3453C61.716 33.7352 61.8828 34.2138 62.0807 34.7662C62.3413 35.493 62.5544 36.2669 62.7992 37.0353C62.9447 37.4908 64.2806 40.3958 64.7184 41.5472C64.8451 41.8799 64.4281 42.138 64.231 41.8019C63.4643 40.4917 62.6265 38.6597 62.1021 37.2165C61.7404 36.2193 61.4272 35.1018 61.0217 34.2436C60.9288 34.0468 60.8512 33.9201 60.7935 33.8294C60.4908 33.3543 61.1845 32.7965 61.495 33.3452L61.4951 33.3453Z" fill="#F8DEAA"/>
<path d="M64.7188 34.3603C64.8082 34.1544 64.8866 33.349 64.3904 32.7604C63.7899 32.0476 62.9426 32.233 62.9818 33.349C62.9927 33.6662 63.0847 33.9904 63.2419 34.2754C63.6616 35.0374 64.244 35.1628 64.7188 34.3602V34.3603Z" fill="#12374A"/>
<path fill-rule="evenodd" clip-rule="evenodd" d="M26.628 65.3108C26.0036 65.331 25.394 65.331 24.8029 65.3126C19.276 62.9808 14.4938 59.2364 10.9121 54.5322C11.3643 54.2937 11.8626 54.1385 12.4778 54.1032C13.2004 54.0625 13.2281 54.0829 13.821 54.4194C14.4399 54.767 15.0681 55 15.698 55.0315C16.9135 55.0925 16.4559 54.5322 16.8412 55.9818C17.3174 57.7719 18.3496 60.1203 19.3852 60.9837C20.7897 62.1542 21.9106 62.0487 23.3745 62.2761C23.6506 63.661 25.4218 64.0088 25.8869 63.9606L26.628 65.3105V65.3108Z" fill="#F8DEAA"/>
<path fill-rule="evenodd" clip-rule="evenodd" d="M20.058 46.0227C19.0412 46.2131 19.362 45.7758 18.1884 46.3839C18.0827 46.9208 17.9968 47.2716 17.8865 47.623C17.5622 48.6572 17.3175 48.4188 18.1152 49.1323C19.2003 49.9565 19.1615 50.2577 19.7742 49.1042L20.2364 48.4796C20.7424 47.5748 20.8283 47.5052 20.218 46.6614L20.058 46.0227Z" fill="#F8DEAA"/>
<path d="M51.931 41.8011C52.1773 41.8713 52.422 41.9416 52.6646 42.0101C52.5516 42.4648 52.4701 42.9197 52.4349 43.3636L51.6196 43.2526C48.1603 43.1714 43.3985 42.5556 39.9059 42.0952L36.7987 41.6847L33.8398 41.1613C34.1974 40.8618 34.5253 40.5456 34.8292 40.2202L34.9126 40.2369L40.1246 41.2169C44.2436 41.8141 47.7546 41.8512 51.931 41.8013V41.8011Z" fill="#12374A"/>
<path fill-rule="evenodd" clip-rule="evenodd" d="M26.5915 14.7727C26.6933 14.7727 26.7565 14.8171 26.8416 14.8319C26.9565 14.8114 27.0677 14.7356 27.2492 14.7912C27.4957 14.8652 27.7512 15.0186 27.9514 15.1573C27.9885 14.8133 27.9903 14.414 27.9791 14.033C27.9514 12.9918 27.9422 12.5925 27.9403 12.4724C27.9219 12.5222 27.8996 12.5721 27.8181 12.6258C27.7403 12.6665 27.3104 12.7627 27.1806 12.38C27.1398 12.391 27.099 12.4039 27.0565 12.4187L27.0102 12.2875C27.4012 12.1469 27.7607 12.1969 27.9366 12.2376C27.9423 12.1247 28.0015 11.9491 27.4179 11.9491C26.8119 12.0082 26.8602 12.4336 26.9918 12.9457C27.0492 13.1713 27.0863 13.3452 27.1084 13.5227C27.1955 14.2272 27.2697 14.3346 26.5748 14.4066C26.1412 14.449 25.8855 14.1867 26.4395 14.1829C27.051 14.181 26.9565 14.1847 26.8509 13.5764C26.8176 13.386 26.7768 13.1917 26.7379 12.9939C26.6806 12.6981 26.6453 12.4096 26.6898 12.1877C26.7898 11.5868 27.5309 11.7162 27.8441 11.4665C27.8998 11.4221 28.0052 11.3334 27.8552 11.1356C27.2289 10.2128 26.4786 10.9544 26.3617 11.0728L26.1634 10.7122C25.5743 10.7139 24.8664 10.5955 24.6293 10.8324C24.5701 10.8915 24.1754 11.5239 24.3478 11.4665C24.8388 11.3019 25.6836 11.1208 26.4101 11.7698C25.958 12.3967 25.7986 11.3334 24.2774 12.0102C24.1608 13.4248 23.9254 14.3659 23.9272 15.7806C23.9291 17.5463 23.1367 18.8288 23.1367 18.8288C23.7235 19.7696 26.2946 23.8054 26.6964 24.3987C26.7843 23.74 27.5652 18.5795 27.3512 17.3078C26.3488 17.4206 24.9537 16.9805 24.2422 15.9099C24.7072 16.2834 25.2261 16.7215 26.2895 16.8382C26.9918 16.9362 27.5253 16.4388 27.8125 15.7806C27.857 15.6769 27.8903 15.5531 27.9164 15.4125C27.6829 15.3829 27.4087 15.3348 27.2493 15.2646C27.1548 15.2221 26.9585 15.1241 26.8603 15.1018C26.764 15.1204 26.562 15.2239 26.4655 15.2664C26.1526 15.4071 25.3816 15.4552 25.3816 15.4552C25.3816 15.4552 25.9448 14.9502 26.4655 14.7933C26.5138 14.7785 26.5545 14.7728 26.5916 14.7728L26.5915 14.7727ZM26.0727 12.3245L26.0652 12.3227L26.0709 12.3283C26.0227 12.4079 26.0321 12.4856 25.8707 12.5724C25.7615 12.6167 25.1575 12.7259 24.9907 12.2784C24.8906 12.295 24.7906 12.321 24.6923 12.3561L24.6442 12.2249C25.3186 11.9845 26.1042 12.1898 26.1062 12.1898L26.0729 12.3248L26.0727 12.3245Z" fill="#F8DEAA"/>
<path fill-rule="evenodd" clip-rule="evenodd" d="M27.4681 15.5892C27.0774 15.9507 26.3112 15.8298 26.123 15.5922C26.6621 15.4908 26.9245 15.3872 27.4681 15.5892Z" fill="#12374A"/>
<path d="M76.6777 52.0682V43.0166H80.9204C82.8921 43.0166 83.9663 44.3466 83.9663 45.9344C83.9663 47.5085 82.8785 48.852 80.9204 48.852H78.6088V52.0683H76.6779L76.6777 52.0682ZM114.565 52.0682L114.007 50.5347H110.118L109.547 52.0682H107.344L110.852 43.0166H113.273L116.768 52.0682H114.565ZM112.063 44.9437L110.648 48.8385H113.477L112.063 44.9437ZM99.1031 52.0682V50.5076L103.386 44.713H99.1031V43.0166H105.916V44.5638L101.632 50.372H106.011V52.0682H99.103H99.1031ZM90.2228 52.0682V50.5076L94.5062 44.713H90.2228V43.0166H97.0353V44.5638L92.752 50.372H97.1305V52.0682H90.2227H90.2228ZM85.9934 52.0682V43.0166H87.9243V52.0682H85.9934ZM81.9947 45.9343C81.9947 45.1742 81.4235 44.7129 80.6618 44.7129H78.6087V47.1556H80.6618C81.4235 47.1556 81.9947 46.6807 81.9947 45.9343Z" fill="#2F5D8E"/>
<path fill-rule="evenodd" clip-rule="evenodd" d="M107.723 35.8895H112.005V16.4277H107.723V24.4294H100.478V16.4277H96.1953V35.8895H100.478V27.7975H107.723V35.8895ZM91.2718 31.3138L91.1736 31.3772C90.7381 31.6781 90.1599 31.9083 89.658 32.0688C88.9801 32.2857 88.259 32.4299 87.5483 32.476C87.3929 32.4861 87.2372 32.4914 87.0814 32.4914C85.3732 32.4914 83.879 31.942 82.666 30.7314C81.4089 29.477 80.9025 27.8924 80.9025 26.1437C80.9025 24.4153 81.3981 22.8296 82.5989 21.5629C83.7758 20.3212 85.293 19.7961 86.9906 19.7961C87.8373 19.7961 88.6649 19.9267 89.4637 20.2081C89.7948 20.3248 90.1278 20.4444 90.4522 20.5788C90.6484 20.6601 90.8818 20.7596 91.0561 20.8827L91.1692 20.9579L91.9032 17.0685L91.5596 16.9061L91.5539 16.9031C91.3313 16.7876 91.0729 16.6982 90.8338 16.6234C90.4793 16.5127 90.1154 16.4237 89.7516 16.3494C88.8613 16.1676 87.9298 16.0657 87.021 16.0657C84.1675 16.0657 81.6404 16.9564 79.5708 18.9309C77.5043 20.9022 76.5898 23.3322 76.5898 26.1742C76.5898 29.028 77.3327 31.6963 79.5031 33.6523C81.6351 35.5733 84.2871 36.2823 87.1119 36.2823C88.0888 36.2823 89.0453 36.1746 89.9919 35.9307C90.3674 35.834 90.7459 35.7334 91.1154 35.6154C91.2992 35.5566 91.5258 35.4837 91.6952 35.3902L92.1122 35.1523L91.2719 31.314L91.2718 31.3138ZM160.961 28.234L163.786 20.4961L166.61 28.234H160.961ZM158.137 35.8897L158.627 34.6298L159.749 31.5543H167.822L168.944 34.6298L169.434 35.8897H173.99L166.008 16.4279H161.563L153.581 35.8897H158.137ZM181.872 19.7658H182.665C183.881 19.7658 185.346 19.9843 186.119 21.0355C186.496 21.5489 186.636 22.1636 186.636 22.7919C186.636 25.1926 184.899 25.9692 182.726 25.9692H181.872V19.7658ZM177.589 35.8897H181.872V28.7338H182.557L186.792 35.8897H192L187.041 28.1247L187.839 27.8795C190.04 26.8722 190.998 24.8945 191.009 22.5188C191.022 19.8369 189.445 17.9374 186.967 17.0417C185.593 16.545 183.965 16.4279 182.514 16.4279H177.589V35.8897H177.589ZM144.324 19.9168H145.057C145.964 19.9168 146.898 20.148 147.632 20.6981C148.758 21.5427 149.118 22.8913 149.118 24.2416C149.118 25.6116 148.66 26.9247 147.447 27.6735C146.812 28.0655 146.071 28.234 145.329 28.234H144.324V19.9168ZM140.041 35.8897H144.324V31.5719H145.42C147.288 31.5719 149.258 31.0899 150.757 29.9365C152.708 28.4349 153.4 26.1747 153.4 23.7887C153.4 20.5775 151.79 17.9595 148.7 16.9238C147.515 16.5264 146.087 16.428 144.845 16.428H140.041V35.8898V35.8897ZM122.024 30.8993C120.822 29.5637 120.327 27.9242 120.327 26.1437C120.327 24.3876 120.832 22.7564 122.025 21.4468C123.177 20.1828 124.632 19.5545 126.344 19.5545C128.066 19.5545 129.515 20.1894 130.688 21.4435C131.907 22.7464 132.418 24.3763 132.418 26.1437C132.418 27.9499 131.928 29.5924 130.69 30.9329C129.52 32.2 128.067 32.7933 126.344 32.7933C124.633 32.7933 123.169 32.172 122.024 30.8993ZM119.21 18.9269C117.196 20.9122 116.346 23.3666 116.346 26.1742C116.346 28.982 117.158 31.5357 119.208 33.5089C121.198 35.4249 123.618 36.2823 126.373 36.2823C129.125 36.2823 131.524 35.4053 133.508 33.4796C135.557 31.491 136.399 29.0046 136.399 26.1742C136.399 23.3547 135.536 20.913 133.507 18.9279C131.529 16.9921 129.141 16.0657 126.373 16.0657C123.594 16.0657 121.192 16.9742 119.21 18.9269Z" fill="#2F5D8E"/>
</g>
<defs>
<filter id="filter0_d" x="0" y="0" width="196" height="75.977" filterUnits="userSpaceOnUse" color-interpolation-filters="sRGB">
<feFlood flood-opacity="0" result="BackgroundImageFix"/>
<feColorMatrix in="SourceAlpha" type="matrix" values="0 0 0 0 0 0 0 0 0 0 0 0 0 0 0 0 0 0 127 0"/>
<feOffset dy="4"/>
<feGaussianBlur stdDeviation="2"/>
<feColorMatrix type="matrix" values="0 0 0 0 0 0 0 0 0 0 0 0 0 0 0 0 0 0 0.25 0"/>
<feBlend mode="normal" in2="BackgroundImageFix" result="effect1_dropShadow"/>
<feBlend mode="normal" in="SourceGraphic" in2="effect1_dropShadow" result="shape"/>
</filter>
<clipPath id="clip0">
<rect width="188" height="67.977" fill="white" transform="translate(4)"/>
</clipPath>
</defs>
</svg>
